<?xml version="1.0" encoding="utf-8"?>
<!-- Generator: Adobe Illustrator 19.0.0, SVG Export Plug-In . SVG Version: 6.00 Build 0)  -->
<svg version="1.1" xmlns="http://www.w3.org/2000/svg" xmlns:xlink="http://www.w3.org/1999/xlink" x="0px" y="0px" width="1400px"
	 height="1400px" viewBox="0 0 1400 1400" enable-background="new 0 0 1400 1400" xml:space="preserve">
<g id="BG">
	<rect id="XMLID_71_" fill="#FFFF00" width="1400" height="1400"/>
</g>
<g id="OBJ">
	<g id="XMLID_1_">
		<g id="XMLID_26_">
			<defs>
				<rect id="XMLID_25_" width="1400" height="1400"/>
			</defs>
			<clipPath id="XMLID_3_">
				<use xlink:href="#XMLID_25_"  overflow="visible"/>
			</clipPath>
			<circle id="XMLID_86_" clip-path="url(#XMLID_3_)" fill="#FFFFFF" cx="45" cy="671.1" r="281.3"/>
			<polygon id="XMLID_88_" clip-path="url(#XMLID_3_)" fill="#FFFFFF" points="561.4,1465.3 1134.2,1059.5 1199.2,1758.5 			"/>
			<polygon id="XMLID_89_" clip-path="url(#XMLID_3_)" fill="#FFFFFF" points="1102.6,220.5 1675.5,-185.2 1740.4,513.7 			"/>
			<rect id="XMLID_73_" x="0.1" y="1272" clip-path="url(#XMLID_3_)" width="1399.8" height="87.4"/>
			<rect id="XMLID_42_" x="147.8" y="759.5" clip-path="url(#XMLID_3_)" width="664.4" height="110"/>
			<g id="XMLID_17_" clip-path="url(#XMLID_3_)">
				
					<rect id="XMLID_45_" x="1091.9" y="863.3" transform="matrix(-0.9548 -0.2972 0.2972 -0.9548 2106.3975 2056.897)" fill="#A5A5A5" width="235.4" height="9.9"/>
				<path id="XMLID_46_" fill="#A5A5A5" d="M1159.5,913.7c13-2.1,24.8-1.3,35.9,2.1c10.6,3.3,20.5,9.4,29.8,18.3l8.2-8.6
					c-10.4-10-21.8-17.2-34.5-21.1c-12.9-4-26.7-4.9-41.3-2.5L1159.5,913.7L1159.5,913.7z"/>
				<path id="XMLID_41_" d="M1162.9,901.2c-2.2-17.5-10.7-34.1-28-50.9c-5.7-5.5-12.3-11-19.9-16.6c-11.7-8.5-25.8-17.2-42.6-26.1
					c-73.9-39.1-138-28.4-157.6-25.5c-17.7,2.6-39.6,7.4-62,3c-4-0.8-8,1.6-9.2,5.6l-8.6,27.7c-0.9,2.8-0.2,5.8,1.8,7.9
					c15.3,16.2,9.4,44.9,7.1,68.1c-4,41.9,11.2,122.1,103.3,155.3c88.4,31.8,126.5-6.2,146.9-20.6c20.4-14.4,51.2-55.4,63.6-84.1
					c3.4-11.1,5.5-21.6,5.8-31.8C1163.6,909.1,1163.4,905.1,1162.9,901.2z M966.7,1045.8c-108.9-33.9-118.2-120.9-102.4-171.6
					c14.1-45.3,36.6-109.1,159.7-70.8c64.4,20,112.1,68.7,113,115.7C1137.9,966.1,1075.5,1079.7,966.7,1045.8z"/>
				<path id="XMLID_68_" fill="#FFFFFF" d="M1124.1,876.8c-55.1,40.7-136,88.9-230.9,126.2c-20.1-20.9-30-45.2-33.5-68.7
					c82.7-34.8,153.6-77.1,204-113.7C1090.2,835.4,1111.4,855.2,1124.1,876.8z"/>
				<path id="XMLID_70_" fill="#FFFFFF" d="M1136.7,915.1c-46.9,36.5-117.1,80.9-201,118.4c-9.4-4.6-17.7-9.7-25.1-15.3
					c91.9-38.2,169.5-85.8,221.2-125.2C1134.5,900.3,1136.2,907.7,1136.7,915.1z"/>
				<path id="XMLID_44_" d="M1550.6,1002.3c-20.9-9.1-36.2-25.4-49.3-37.7c-14.5-13.5-61.2-58.7-144.2-68.4
					c-18.9-2.2-35.4-3.1-49.9-2.7c-9.5,0.2-18,1-25.8,2.3c-23.8,4-40.2,12.9-52,26.1c-2.6,2.9-5,6.1-7.2,9.5
					c-5.6,8.5-9.8,18.4-13.3,29.5c-6.1,30.6-4,81.8,4.6,105.3c8.6,23.4,18.5,76.4,109.3,100.3c94.6,25,152.8-32.4,173.2-69.2
					c11.4-20.4,22.7-47.4,44.5-52c2.8-0.6,5.1-2.7,5.9-5.5l8.6-27.7C1556.2,1008.2,1554.3,1004,1550.6,1002.3z M1490.5,1069.2
					c-15.8,50.7-72.8,117-181.7,83.1c-108.9-33.9-95.8-162.8-68.3-201c27.5-38.2,94.3-51.1,158.7-31.1
					C1522.4,958.6,1504.6,1023.9,1490.5,1069.2z"/>
				<path id="XMLID_63_" fill="#FFFFFF" d="M1490.9,980c-52.2,41.7-136.9,95.2-238.6,136.7c-17.9-20.4-26.8-45.7-29.8-70.7
					c83.4-36.7,153.6-80.5,201.5-117C1460.3,943.8,1480.5,961.5,1490.9,980z"/>
				<path id="XMLID_65_" fill="#FFFFFF" d="M1500.5,1019.9c-43.9,37-116.7,85.6-206.2,126.9c-9.5-4.1-18-9.1-25.4-14.8
					c99-42.5,180.2-95.4,228.9-135.6C1499.9,1004.3,1500.6,1012.2,1500.5,1019.9z"/>
			</g>
			<g id="XMLID_21_" clip-path="url(#XMLID_3_)">
				<path id="XMLID_39_" d="M228.5,222.3c-10-32.9-32.5-58.8-60.7-73.8c-28.2-15-62.1-19.3-95.1-9.2C39.8,149.4,14,171.9-1,200.1
					c-15,28.2-19.3,62.1-9.2,95.1c10,32.9,32.5,58.8,60.7,73.8c28.2,15,62.1,19.3,95.1,9.2c32.9-10,58.8-32.5,73.8-60.7
					C234.3,289.3,238.6,255.3,228.5,222.3z M205.3,309.9c-13.1,24.6-35.6,44.2-64.3,53c-28.8,8.8-58.3,5.1-83-8
					c-24.6-13.1-44.2-35.6-53-64.4c-8.8-28.8-5.1-58.3,8.1-82.9c13.1-24.6,35.6-44.2,64.3-53c28.8-8.8,58.3-5.1,83,8.1
					c24.6,13.1,44.2,35.6,53,64.3C222.1,255.8,218.4,285.3,205.3,309.9z"/>
				<path id="XMLID_75_" fill="#FFFFFF" d="M131.4,152.1c-6.7,74.7-21.6,165.8-30.1,215.2c-15.3-1.1-30-5.5-43.3-12.5
					c-8.5-4.5-16.4-10.2-23.4-16.8c8.1-48.6,18.4-116.4,24.2-175.8c5.9-3.1,12.1-5.6,18.7-7.6C95.6,149.1,114,148.5,131.4,152.1z"/>
				<path id="XMLID_77_" fill="#FFFFFF" d="M169.3,168c-7,69-19.8,148-27.8,194.7c-0.2,0.1-0.4,0.1-0.6,0.2
					c-6.6,2-13.3,3.4-19.9,4.1c8.4-48.3,22.6-135.6,29.5-209c3.3,1.4,6.6,2.9,9.8,4.6C163.4,164.3,166.4,166.1,169.3,168z"/>
				<path id="XMLID_34_" fill="#FFFFFF" d="M453.7,53.9c-6.7,74.7-21.6,165.8-30.1,215.2c-15.3-1.1-30-5.5-43.3-12.5
					c-8.5-4.5-16.4-10.2-23.4-16.8c8.1-48.6,18.4-116.4,24.2-175.8c5.9-3.1,12.1-5.6,18.7-7.6C417.9,50.8,436.4,50.2,453.7,53.9z"/>
				<path id="XMLID_33_" fill="#FFFFFF" d="M491.7,69.7c-7,69-19.8,148-27.8,194.7c-0.2,0.1-0.4,0.1-0.6,0.2
					c-6.6,2-13.3,3.4-19.9,4.1c8.4-48.3,22.6-135.6,29.5-209c3.3,1.4,6.6,2.9,9.8,4.6C485.8,66,488.8,67.8,491.7,69.7z"/>
				<path id="XMLID_48_" d="M228.2,226.8c0.3,14.4-4.7,26.2-11.1,26.3c-6.4,0.1-11.8-11.5-12-25.9s4.8-18.6,11.2-18.7
					C222.7,208.4,228,212.4,228.2,226.8z"/>
				<path id="XMLID_36_" d="M550.9,124c-10-32.9-32.5-58.8-60.7-73.8C462,35.3,428,31,395.1,41.1c-32.9,10-58.8,32.5-73.8,60.7
					c-15,28.2-19.3,62.1-9.2,95.1c10,32.9,32.5,58.8,60.7,73.8c28.2,15,62.1,19.3,95.1,9.2c32.9-10,58.8-32.5,73.8-60.7
					C556.7,191,560.9,157,550.9,124z M527.6,211.7c-13.1,24.6-35.6,44.2-64.3,53c-28.8,8.8-58.3,5.1-83-8.1
					c-24.6-13.1-44.2-35.6-53-64.3c-8.8-28.8-5.1-58.3,8.1-83c13.1-24.6,35.6-44.2,64.3-53c28.8-8.8,58.3-5.1,83,8.1
					c24.6,13.1,44.2,35.6,53,64.3C544.4,157.5,540.7,187,527.6,211.7z"/>
				<path id="XMLID_50_" d="M314.8,200.4c7.8,12.1,18.5,19.1,23.9,15.6c5.4-3.5,3.3-16.1-4.5-28.2c-7.8-12.1-14.4-12.7-19.7-9.3
					C309.1,182,307,188.3,314.8,200.4z"/>
				<path id="XMLID_51_" d="M217,234.1c0.3-0.2,6.1-3.1,11.9-8.2c2.9-2.6,5.9-5.7,8-9.7c1.1-2,2-4.3,2.4-6.9
					c0.4-2.5,0.3-5.4-0.6-8.1c-3.8-12.3-5-16.5-5-16.5l-7.6,2.3l5.6,5.7c9-8.9,18.5-14.9,28.7-18c10.9-3.3,22.4-4,35.3-1.6l1.5-7.8
					l-7.6,2.3c0,0,1.3,4.1,5,16.5c0.8,2.7,2.3,5.1,4,7c3.1,3.3,6.8,5.1,10.4,6.3c5.4,1.7,10.7,2.1,14.8,2.1c4.1,0,7-0.3,7.2-0.3
					l-1.8-15.8l0,0c-0.3,0.1-5.9,0.6-11.1-0.2c-2.6-0.4-5-1.1-6.4-1.9c-0.7-0.4-1.2-0.8-1.4-1.1c-0.3-0.3-0.4-0.5-0.5-0.8
					c-1.9-6.2-3.1-10.3-3.9-12.9c-0.8-2.6-1.1-3.6-1.1-3.6l-1.4-4.6l-4.7-0.9c-15.2-2.9-29.6-2.1-42.9,2c-13,4-24.8,11.5-35.3,21.9
					l-3.4,3.4l1.4,4.6c0,0,1.3,4.1,5,16.5c0.1,0.4,0.1,0.6,0.1,1c-0.1,0.7-0.7,2.1-1.9,3.7c-1.8,2.4-4.9,4.9-7.5,6.7
					c-1.3,0.9-2.5,1.6-3.3,2.1c-0.4,0.2-0.7,0.4-0.9,0.5l-0.2,0.1l0,0l1.1,2.1l-1.1-2.1l0,0l1.1,2.1l-1.1-2.1L217,234.1L217,234.1z"
					/>
				<polyline id="XMLID_52_" points="-6.6,249.6 -41.3,260.2 -36.7,275.5 -2,264.9 				"/>
				<polyline id="XMLID_53_" points="560,76.8 525.3,87.4 529.9,102.7 564.7,92.1 				"/>
			</g>
			<polygon id="XMLID_40_" clip-path="url(#XMLID_3_)" points="1147.7,104.9 1195.2,69.4 1203.8,128.1 1259.9,109 1250,167.4 
				1309.3,166.7 1281.8,219.2 1338.4,236.7 1296.1,278.2 1344.5,312.4 1291.4,338.7 1326.8,386.2 1268.2,394.8 1287.2,451 
				1228.8,441.1 1229.6,500.3 1177.1,472.8 1159.5,529.4 1118.1,487.1 1083.8,535.5 1057.5,482.4 1010,517.8 1001.4,459.2 
				945.3,478.3 955.2,419.8 895.9,420.6 923.4,368.1 866.8,350.5 909.2,309.1 860.8,274.9 913.9,248.5 878.4,201.1 937,192.4 
				918,136.3 976.4,146.2 975.6,86.9 1028.2,114.4 1045.7,57.8 1087.2,100.2 1121.4,51.8 			"/>
			<circle id="XMLID_84_" clip-path="url(#XMLID_3_)" cx="673.1" cy="364.8" r="15"/>
			<polygon id="XMLID_85_" clip-path="url(#XMLID_3_)" points="1211.8,691.4 1217,627 1270.2,663.7 			"/>
			<polygon id="XMLID_96_" clip-path="url(#XMLID_3_)" points="74.7,61.7 122.2,17.9 136.3,81 			"/>
			<polygon id="XMLID_97_" clip-path="url(#XMLID_3_)" fill="#FFFFFF" points="730.1,185.4 804.3,117.1 826.3,215.5 			"/>
			<polygon id="XMLID_30_" clip-path="url(#XMLID_3_)" fill="#FFFFFF" points="479.2,529.5 515.5,480.1 569.5,525.6 			"/>
			<polygon id="XMLID_87_" clip-path="url(#XMLID_3_)" points="45.7,1191 89.2,1160.2 94.2,1213.3 			"/>
			
				<polyline id="XMLID_91_" clip-path="url(#XMLID_3_)" fill="none" stroke="#FFFFFF" stroke-width="12" stroke-miterlimit="10" points="
				832.9,465 835.7,513 883.8,515.2 886.6,563.1 934.6,565.3 937.4,613.3 985.5,615.5 988.3,663.4 			"/>
			
				<polyline id="XMLID_92_" clip-path="url(#XMLID_3_)" fill="none" stroke="#000000" stroke-width="12" stroke-miterlimit="10" points="
				744.5,1124.6 723.6,1167.9 678.4,1151.6 657.5,1194.9 612.3,1178.6 591.4,1221.9 546.2,1205.6 525.3,1248.9 			"/>
			
				<polyline id="XMLID_93_" clip-path="url(#XMLID_3_)" fill="none" stroke="#000000" stroke-width="12" stroke-miterlimit="10" points="
				1532.3,-10.8 1514.8,34 1468.5,21.3 1451,66.1 1404.7,53.4 1387.2,98.2 1340.9,85.5 1323.4,130.3 			"/>
			
				<polyline id="XMLID_95_" clip-path="url(#XMLID_3_)" fill="none" stroke="#000000" stroke-width="12" stroke-miterlimit="10" points="
				63.1,620.9 45.7,665.7 -0.7,653 -18.1,697.8 -64.5,685.1 -81.9,729.9 -128.3,717.2 -145.8,762 			"/>
			
				<polyline id="XMLID_94_" clip-path="url(#XMLID_3_)" fill="none" stroke="#FFFFFF" stroke-width="12" stroke-miterlimit="10" points="
				359.3,-103.2 359,-55.2 311.2,-50.4 310.9,-2.4 263.1,2.4 262.8,50.4 215,55.2 214.8,103.2 			"/>
			<circle id="XMLID_90_" clip-path="url(#XMLID_3_)" cx="1153.7" cy="1202.2" r="29.6"/>
			<circle id="XMLID_99_" clip-path="url(#XMLID_3_)" fill="#FFFFFF" cx="1317" cy="531.7" r="18"/>
			<circle id="XMLID_100_" clip-path="url(#XMLID_3_)" fill="#FFFFFF" cx="306.6" cy="1192.2" r="19.6"/>
			<circle id="XMLID_101_" clip-path="url(#XMLID_3_)" cx="666.5" cy="925.5" r="17.5"/>
		</g>
	</g>
</g>
<g id="TXT">
	<text id="XMLID_29_" transform="matrix(1 0 0 1 125.8646 564.2218)" font-family="'OpenSans-Bold'" font-size="163.518px">EYE</text>
	<text id="XMLID_35_" transform="matrix(1 0 0 1 127.057 722.5939)" font-family="'OpenSans-Bold'" font-size="163.518px">GLASSES</text>
	<text id="XMLID_80_" transform="matrix(1 0 0 1 147.7997 967.0558)" font-family="'OpenSans-Bold'" font-size="71.9405px">STORE AT:</text>
	<text id="XMLID_82_" transform="matrix(1 0 0 1 154.6459 1058.4044)"><tspan x="0" y="0" font-family="'OpenSans-Bold'" font-size="46.5867px">JOHN DOE STREET 45B</tspan><tspan x="0" y="55.9" font-family="'OpenSans-Bold'" font-size="46.5867px">JANE BUILDING</tspan></text>
	
		<text id="XMLID_72_" transform="matrix(1 0 0 1 201.1566 837.6202)" fill="#FFFFFF" font-family="'OpenSans-Bold'" font-size="72.4476px">FREE CHECK UP</text>
	<g id="XMLID_31_">
		
			<text id="XMLID_18_" transform="matrix(0.9726 0.2324 -0.2324 0.9726 953.569 303.207)" fill="#FFFFFF" font-family="'OpenSans-Bold'" font-size="202.2075px">20</text>
		
			<text id="XMLID_37_" transform="matrix(0.9726 0.2324 -0.2324 0.9726 1193.5562 291.5331)" fill="#FFFFFF" font-family="'OpenSans-Bold'" font-size="91.7281px">%</text>
		
			<text id="XMLID_38_" transform="matrix(0.9726 0.2324 -0.2324 0.9726 1183.3171 349.8127)" fill="#FFFFFF" font-family="'OpenSans-Bold'" font-size="41.2642px">OFF</text>
	</g>
	<text id="XMLID_81_" transform="matrix(0.9734 0.2291 -0.2291 0.9734 992.7883 369.6385)"><tspan x="0" y="0" fill="#FFFFFF" font-family="'OpenSans-Bold'" font-size="26.8807px">VALID UNTIL:</tspan><tspan x="-14.4" y="32.3" fill="#FFFFFF" font-family="'OpenSans-Bold'" font-size="26.8807px">31 MARCH 2019</tspan></text>
	
		<text id="XMLID_83_" transform="matrix(1 0 0 1 530.8947 1322.6084)" fill="#FFFFFF" font-family="'OpenSans-Bold'" font-size="32.0273px">www.eyeglasses.com</text>
</g>
</svg>
